<svg width="256" height="32" viewBox="0 0 256 32" fill="none" xmlns="http://www.w3.org/2000/svg">
<path d="M224.39 31.0339L238.577 0.0339355H241.813L256 31.0339H252.542L239.508 1.93822H240.838L227.804 31.0339H224.39ZM229.976 22.7525L230.951 20.0954H248.995L249.971 22.7525H229.976Z" fill="white"/>
<path d="M191.055 31.0339V0.0339355H204.444C207.902 0.0339355 210.577 0.727745 212.468 2.11536C214.389 3.50298 215.35 5.46632 215.35 8.00536C215.35 9.68822 214.951 11.1054 214.153 12.2568C213.384 13.4082 212.32 14.2792 210.961 14.8696C209.631 15.4601 208.168 15.7554 206.572 15.7554L207.325 14.6925C209.306 14.6925 211.005 15.0025 212.424 15.6225C213.872 16.213 214.995 17.1135 215.793 18.3239C216.591 19.5049 216.99 20.9811 216.99 22.7525C216.99 25.3801 216.015 27.4173 214.064 28.8639C212.143 30.3106 209.232 31.0339 205.33 31.0339H191.055ZM194.336 28.3325H205.286C208.005 28.3325 210.089 27.8749 211.537 26.9597C212.985 26.0149 213.71 24.5239 213.71 22.4868C213.71 20.4792 212.985 19.0177 211.537 18.1025C210.089 17.1577 208.005 16.6854 205.286 16.6854H193.981V13.9839H204.222C206.705 13.9839 208.626 13.5116 209.985 12.5668C211.375 11.622 212.069 10.2197 212.069 8.35965C212.069 6.47013 211.375 5.06774 209.985 4.15251C208.626 3.20774 206.705 2.73536 204.222 2.73536H194.336V28.3325Z" fill="white"/>
<path d="M149.435 31.0339L163.621 0.0339355H166.858L181.045 31.0339H177.587L164.552 1.93822H165.882L152.848 31.0339H149.435ZM155.021 22.7525L155.996 20.0954H174.04L175.015 22.7525H155.021Z" fill="white"/>
<path d="M113.459 31.0339V0.0339355H116.163L137.576 26.9597H136.158V0.0339355H139.394V31.0339H136.69L115.321 4.10822H116.739V31.0339H113.459Z" fill="white"/>
<path d="M71.8381 31.0339L86.025 0.0339355H89.2613L103.448 31.0339H99.9901L86.956 1.93822H88.286L75.2518 31.0339H71.8381ZM77.4242 22.7525L78.3995 20.0954H96.4434L97.4188 22.7525H77.4242Z" fill="white"/>
<path d="M44.458 23.3282L44.325 19.3425L63.1225 0.0339355H66.8909L53.1917 14.3825L51.3297 16.3754L44.458 23.3282ZM41.6206 31.0339V0.0339355H44.9013V31.0339H41.6206ZM63.9205 31.0339L50.5317 15.6225L52.7484 13.2311L67.8219 31.0339H63.9205Z" fill="white"/>
<path d="M0 31.0339L14.1868 0.0339355H17.4232L31.61 31.0339H28.152L15.1178 1.93822H16.4479L3.41371 31.0339H0ZM5.58607 22.7525L6.56141 20.0954H24.6053L25.5806 22.7525H5.58607Z" fill="white"/>
</svg>
